<svg xmlns="http://www.w3.org/2000/svg" width="138.979" height="37.438" viewBox="0 0 138.979 37.438"><defs><style>.a{fill:#ff4800;}.b{fill:#fff;}</style></defs><g transform="translate(0.026 0)"><path class="a" d="M28.323,384.484c-1.441.923-2.823,1.277-3.423,1-.095-.043-.368-.177-.368-.99v-.014c0-.813.278-.945.37-.99a1.2,1.2,0,0,1,.5-.09,4.031,4.031,0,0,1,1.311.278,8.241,8.241,0,0,1,1.608.812Zm-19.56-.017c1.445-.926,2.859-1.284,3.463-1.006.1.043.4.177.4.99v.014c0,.81-.3.944-.4.988-.6.278-2.017-.071-3.461-.991Zm21.647,9.717v-3.854a1.074,1.074,0,1,0-2.147,0v3.854H24.392a1.074,1.074,0,1,0,0,2.147h3.872V400.6a34.966,34.966,0,0,1-7.624-3.984,8.014,8.014,0,0,1-.695-.607,10.885,10.885,0,0,0,1.416-2.618,4.565,4.565,0,0,0,.111-3.455,3.063,3.063,0,0,0-2.941-1.626h-.014a3.062,3.062,0,0,0-2.939,1.625,4.57,4.57,0,0,0,.114,3.454,10.884,10.884,0,0,0,1.429,2.628c-.211.2-.428.393-.682.591a34.888,34.888,0,0,1-7.581,3.984v-4.254h3.852a1.074,1.074,0,1,0,0-2.147H8.854v-3.854a1.074,1.074,0,1,0-2.147,0v3.854H2.415A35.793,35.793,0,0,1,6.4,386.571a7.7,7.7,0,0,1,.613-.695A10.95,10.95,0,0,0,9.645,387.3a6.055,6.055,0,0,0,2.046.4,3.412,3.412,0,0,0,1.434-.289,3.081,3.081,0,0,0,1.647-2.938v-.014a3.08,3.08,0,0,0-1.644-2.939,4.6,4.6,0,0,0-3.466.113,10.911,10.911,0,0,0-2.641,1.436,9.111,9.111,0,0,1-.612-.695,35,35,0,0,1-3.99-7.6H6.707v3.872a1.074,1.074,0,1,0,2.147,0v-3.872h3.855a1.074,1.074,0,1,0,0-2.147H8.854v-4.272a34.792,34.792,0,0,1,7.6,3.987,7.628,7.628,0,0,1,.687.614,10.927,10.927,0,0,0-1.426,2.627,4.623,4.623,0,0,0-.113,3.474,3.069,3.069,0,0,0,2.937,1.637h.015a3.071,3.071,0,0,0,2.938-1.636,4.591,4.591,0,0,0-.113-3.462,10.935,10.935,0,0,0-1.437-2.641,8.661,8.661,0,0,1,.716-.606,34.99,34.99,0,0,1,7.606-3.984v4.267H24.392a1.074,1.074,0,1,0,0,2.147h3.872v3.872a1.074,1.074,0,1,0,2.147,0v-3.877h4.244a34.772,34.772,0,0,1-3.984,7.61,8.157,8.157,0,0,1-.609.695,10.965,10.965,0,0,0-2.616-1.426A4.549,4.549,0,0,0,24,381.54a3.053,3.053,0,0,0-1.618,2.939v.014A3.053,3.053,0,0,0,24,387.433a3.308,3.308,0,0,0,1.406.288,6,6,0,0,0,2.039-.4,10.923,10.923,0,0,0,2.627-1.429c.2.21.391.445.588.695a35.756,35.756,0,0,1,3.983,7.6Zm-11.075-1.529a8.309,8.309,0,0,1-.812,1.612c-.923-1.443-1.277-2.832-1-3.433.043-.094.177-.378.99-.378h.014c.812,0,.945.278.99.378A2.728,2.728,0,0,1,19.336,392.656Zm-.795-17.95c.926,1.444,1.28,2.849,1,3.452-.043.095-.177.388-.988.388h-.015c-.81,0-.944-.295-.988-.389C17.272,377.55,17.621,376.148,18.541,374.705Zm17.207,16.559a31.426,31.426,0,0,0-3.394-6c-.221-.278-.441-.545-.663-.787a10.282,10.282,0,0,0,.675-.778,31.18,31.18,0,0,0,3.39-6.008c.471-1.053.823-1.932,1.034-2.482.139-.375.235-.631.286-.778a1.568,1.568,0,0,0,.139-.817,1.08,1.08,0,0,0-.452-.72h-.007a1.311,1.311,0,0,0-.775-.267h-5.57v-5.6a1.3,1.3,0,0,0-.278-.766l-.013-.008a1.08,1.08,0,0,0-.725-.453,1.559,1.559,0,0,0-.819.139c-.147.051-.4.139-.778.288-.549.211-1.426.563-2.478,1.035a31.417,31.417,0,0,0-6,3.392,10.344,10.344,0,0,0-.788.674,9.838,9.838,0,0,0-.777-.677,31.3,31.3,0,0,0-6.007-3.392c-1.053-.471-1.932-.823-2.482-1.035-.375-.139-.631-.235-.778-.286a1.552,1.552,0,0,0-.817-.139,1.081,1.081,0,0,0-.719.45h.008a1.3,1.3,0,0,0-.258.774v5.6H1.083a1.306,1.306,0,0,0-.767.258h0a1.073,1.073,0,0,0-.457.728c-.044.289-.015.445.427,1.593.213.556.564,1.426,1.037,2.479a31.3,31.3,0,0,0,3.392,6,10.239,10.239,0,0,0,.674.787,9.847,9.847,0,0,0-.677.778,31.37,31.37,0,0,0-3.392,6.005c-.475,1.053-.827,1.937-1.044,2.481-.139.375-.235.631-.288.778a1.582,1.582,0,0,0-.139.817,1.085,1.085,0,0,0,.452.721v.01a1.294,1.294,0,0,0,.771.278H6.707v5.591a1.329,1.329,0,0,0,.247.766v.008a1.073,1.073,0,0,0,.72.454,1.158,1.158,0,0,0,.165.013,1.931,1.931,0,0,0,.649-.153c.147-.051.4-.139.777-.288.549-.211,1.426-.563,2.478-1.035a31.343,31.343,0,0,0,6-3.392q.417-.329.785-.664a10.036,10.036,0,0,0,.78.675,31.211,31.211,0,0,0,6.007,3.39c1.053.471,1.93.823,2.481,1.034.377.139.631.236.778.288a1.975,1.975,0,0,0,.649.151,1.184,1.184,0,0,0,.168-.013,1.083,1.083,0,0,0,.721-.453l.019-.008a1.3,1.3,0,0,0,.278-.773v-5.6h5.57a1.315,1.315,0,0,0,.766-.263l.008-.008a1.081,1.081,0,0,0,.454-.724c.044-.289.015-.446-.428-1.594-.211-.556-.563-1.426-1.034-2.478Z" transform="translate(0.14 -365.78)"/><g transform="translate(42.772 10.686)"><path class="b" d="M937.616,451.194a9.631,9.631,0,0,0-2.927-1.437l-.108-.038a8.544,8.544,0,0,1-2.156-.987,2.029,2.029,0,0,1-.9-1.743v-.056a2.038,2.038,0,0,1,.82-1.751,3.124,3.124,0,0,1,1.807-.513,2.955,2.955,0,0,1,1.787.514,2.135,2.135,0,0,1,.819,1.577v.671a.831.831,0,0,0,.859.894h.4a.832.832,0,0,0,.852-.894v-.556A3.917,3.917,0,0,0,937.5,443.8a5.111,5.111,0,0,0-3.335-1.124,5.035,5.035,0,0,0-3.335,1.112,3.992,3.992,0,0,0-1.369,3.141c0,3.174,2.41,4.03,4.347,4.716,1.9.673,3.057,1.165,3.057,2.743v.056a2.334,2.334,0,0,1-.417,1.39,2.681,2.681,0,0,1-2.272.87,3.2,3.2,0,0,1-1.946-.546,2.1,2.1,0,0,1-.788-1.772v-.368a.743.743,0,0,0-.834-.8h-.395a.81.81,0,0,0-.917.8v.556h.018a3.878,3.878,0,0,0,1.422,3.026,5.285,5.285,0,0,0,3.459,1.112,5.393,5.393,0,0,0,3.461-1.1,3.912,3.912,0,0,0,1.418-3.137,3.988,3.988,0,0,0-1.461-3.287Z" transform="translate(-842.922 -442.679)"/><path class="b" d="M322.576,443.845h0a4.568,4.568,0,0,0-3.144-1.137,4.521,4.521,0,0,0-2.461.642,3.577,3.577,0,0,0-1.156,1.174,4.039,4.039,0,0,0-3.591-1.835,4.528,4.528,0,0,0-3.167,1.112,4.43,4.43,0,0,0-1.28,3.327v10.423a.844.844,0,0,0,.889.873h.4a.819.819,0,0,0,.86-.873V447.33a2.746,2.746,0,0,1,.695-2.075,2.356,2.356,0,0,1,1.691-.58c2.021,0,2.443,1.444,2.443,2.654v10.312a.81.81,0,0,0,.787.792h.591a.8.8,0,0,0,.77-.814V447.336a2.754,2.754,0,0,1,.709-2.075,2.817,2.817,0,0,1,3.423,0,2.77,2.77,0,0,1,.695,2.075v10.226a.834.834,0,0,0,.877.873h.481a.814.814,0,0,0,.791-.8V447.137a4.329,4.329,0,0,0-1.293-3.287Z" transform="translate(-307.776 -442.687)"/><path class="b" d="M455.345,447.812v5.744a2.691,2.691,0,0,1-2.87,3.151,2.869,2.869,0,0,1-2.051-.695,3.257,3.257,0,0,1-.845-2.457v-5.74a3.225,3.225,0,0,1,.853-2.456,2.849,2.849,0,0,1,2.037-.695c1.312,0,2.875.548,2.875,3.151Zm-2.857-5.142a5.122,5.122,0,0,0-3.591,1.276,5.025,5.025,0,0,0-1.466,3.782v5.905a5.026,5.026,0,0,0,1.466,3.791,5.092,5.092,0,0,0,3.581,1.266,4.647,4.647,0,0,0,4.977-5.057v-5.9a4.652,4.652,0,0,0-4.967-5.057Z" transform="translate(-428.021 -442.67)"/><path class="b" d="M547.911,445.24a2.893,2.893,0,0,1,4.708,2.616v.345a3.183,3.183,0,0,1-.834,2.463,3.748,3.748,0,0,1-2.514.675h-2.377v-3.483a3.086,3.086,0,0,1,1.02-2.616Zm4.089,7.6c1.783-.648,2.71-2.093,2.8-4.411,0-.047-.018-.652-.018-.652a5.007,5.007,0,1,0-10,0v9.815a.866.866,0,0,0,.913.873h.4a.835.835,0,0,0,.8-.892V453.26h2.586c.15,0,.278-.025.417-.029l2.68,4.677a.918.918,0,0,0,.933.556h.541a.773.773,0,0,0,.688-.389.752.752,0,0,0-.057-.769L552,452.839Z" transform="translate(-511.842 -442.713)"/><path class="b" d="M651.094,447.984v.345a3.184,3.184,0,0,1-.863,2.463,3.852,3.852,0,0,1-2.541.675h-2.324v-3.483a2.684,2.684,0,0,1,2.86-3.153C649.534,444.831,651.094,445.379,651.094,447.984Zm2.125-.032a5.078,5.078,0,0,0-1.443-3.8h0a5.236,5.236,0,0,0-3.548-1.286,5.106,5.106,0,0,0-3.568,1.251,5.016,5.016,0,0,0-1.443,3.777v9.819a.849.849,0,0,0,.9.873h.339a.937.937,0,0,0,.912-.93v-4.271H647.9a5.613,5.613,0,0,0,3.891-1.2,4.8,4.8,0,0,0,1.42-3.59h0c0-.038.011-.65.011-.65Z" transform="translate(-596.599 -442.842)"/><path class="b" d="M744.049,445.34h-.409a.793.793,0,0,0-.859.771v7.483h-5.766v-7.476a.732.732,0,0,0-.834-.778h-.4a.765.765,0,0,0-.873.778v13.725a.876.876,0,0,0,.846.876h.448a.877.877,0,0,0,.851-.873v-4.331h5.766v4.328a.816.816,0,0,0,.849.873h.4a.819.819,0,0,0,.86-.873V446.118a.813.813,0,0,0-.881-.778Z" transform="translate(-675.548 -444.969)"/><path class="b" d="M843.593,445.07h-.428a.829.829,0,0,0-.906.816v9.728a3.269,3.269,0,0,1-.824,2.457,2.85,2.85,0,0,1-2.042.695,2.689,2.689,0,0,1-2.863-3.151v-9.728a.747.747,0,0,0-.834-.816h-.4a.83.83,0,0,0-.92.816V455.7a5.1,5.1,0,0,0,1.355,3.688,5.032,5.032,0,0,0,3.668,1.373,5.134,5.134,0,0,0,3.583-1.276,5.017,5.017,0,0,0,1.459-3.782v-9.822A.781.781,0,0,0,843.593,445.07Z" transform="translate(-761.194 -444.736)"/><path class="b" d="M308.9,591.643a1.085,1.085,0,0,1,0-.115.813.813,0,0,1,0-.106.542.542,0,0,1,.213-.382,1.039,1.039,0,0,1,.65-.177,2.938,2.938,0,0,1,.643.074,3.757,3.757,0,0,1,.628.2v-.655a2.75,2.75,0,0,0-.574-.189,3.337,3.337,0,0,0-.695-.067,1.931,1.931,0,0,0-1.166.313,1.129,1.129,0,0,0-.446.866v.124a1.329,1.329,0,0,0,.007.158c.046.889.628,1.049,1.216,1.13s1.176.079,1.236.648a.55.55,0,0,1,.008.107.458.458,0,0,1-.008.107.556.556,0,0,1-.256.417,1.451,1.451,0,0,1-.809.178,3.964,3.964,0,0,1-.738-.067,4.647,4.647,0,0,1-.707-.181v.661a4.649,4.649,0,0,0,.68.158,4.384,4.384,0,0,0,.767.061,2.3,2.3,0,0,0,1.319-.327,1.155,1.155,0,0,0,.5-.906v-.247c-.069-.885-.655-1.042-1.238-1.123s-1.165-.086-1.226-.669Z" transform="translate(-308.055 -569.722)"/><path class="b" d="M340.636,227.908l.9,0,.9,0v-.53h-1.808v-1.281h2.072v-.641H339.92v4.6h2.863v-.641h-2.147v-1.5Z" transform="translate(-335.472 -204.804)"/><path class="b" d="M370.027,594.163a3.339,3.339,0,0,1-.382.069,4.208,4.208,0,0,1-.485.026,1.089,1.089,0,0,1-.881-.321,1.534,1.534,0,0,1-.288-.987c-.007-.131-.01-.25-.008-.37s.007-.238.014-.368a1.573,1.573,0,0,1,.286-.985,1.079,1.079,0,0,1,.878-.329,3.561,3.561,0,0,1,.742.072,2.594,2.594,0,0,1,.613.211v-.668a2.852,2.852,0,0,0-.575-.2,3.5,3.5,0,0,0-.777-.074,1.862,1.862,0,0,0-1.436.5,2.2,2.2,0,0,0-.478,1.479v.368c0,.118,0,.239.008.37a2.186,2.186,0,0,0,.479,1.479,1.86,1.86,0,0,0,1.427.491,3.8,3.8,0,0,0,.834-.09,5.26,5.26,0,0,0,.668-.206v-1.8h-.641Z" transform="translate(-358.984 -569.728)"/><path class="b" d="M402.748,594.047a1.5,1.5,0,0,1-.2.86.792.792,0,0,1-.7.318h-.09a.973.973,0,0,1-.77-.318,1.291,1.291,0,0,1-.27-.86V591.23H400v2.817a1.941,1.941,0,0,0,.448,1.368,1.73,1.73,0,0,0,1.322.489h.09a1.487,1.487,0,0,0,1.23-.489,2.142,2.142,0,0,0,.377-1.368V591.23h-.716v2.817Z" transform="translate(-387.183 -570.583)"/><path class="b" d="M434.968,593.605h-1.192v-1.734h1.185a1.046,1.046,0,0,1,.685.167.652.652,0,0,1,.189.488q0,.077,0,.158a1.633,1.633,0,0,1,0,.164.844.844,0,0,1-.2.556.909.909,0,0,1-.669.2Zm1.59-.8v-.3a1.273,1.273,0,0,0-.377-.928,1.779,1.779,0,0,0-1.22-.346h-1.9v4.6h.716v-1.62h1.192a.123.123,0,0,0,.06-.021.16.16,0,0,1,.058-.028l.424.788.417.789.385-.008.386-.008-.473-.855-.473-.853a1.071,1.071,0,0,0,.595-.461,1.608,1.608,0,0,0,.2-.749Z" transform="translate(-415.648 -570.584)"/><path class="b" d="M465.464,594.207l.343-1.067.343-1.067.343,1.067.343,1.067Zm.346-2.977-.813,2.3-.807,2.3h.742l.174-.509.174-.509h1.734l.174.509.174.509h.791l-.826-2.3-.826-2.3h-.695Z" transform="translate(-442.452 -570.584)"/><path class="b" d="M502.5,228.777l-1.149-1.664L500.2,225.45h-.564v4.6h.716v-3.3l1.149,1.651,1.149,1.652h.566v-4.6H502.5v3.327Z" transform="translate(-472.995 -204.804)"/><path class="b" d="M542.11,261.831h.575l.264-.566.264-.566h-.639l-.232.566-.232.566Z" transform="translate(-509.562 -235.155)"/><path class="b" d="M535.974,594.252a1.074,1.074,0,0,1-.92-.347,1.774,1.774,0,0,1-.264-1.016v-.314c0-.106,0-.21.008-.313a1.814,1.814,0,0,1,.26-1.016,1.054,1.054,0,0,1,.914-.356,2.932,2.932,0,0,1,.642.072,2.686,2.686,0,0,1,.6.211v-.662a2.837,2.837,0,0,0-.563-.208,2.78,2.78,0,0,0-.677-.075,1.815,1.815,0,0,0-1.452.5,2.393,2.393,0,0,0-.454,1.529v.313c0,.1,0,.211.01.314a2.391,2.391,0,0,0,.449,1.529,1.8,1.8,0,0,0,1.443.5,3.01,3.01,0,0,0,.68-.061,5.012,5.012,0,0,0,.567-.158v-.663a4.879,4.879,0,0,1-.607.164,3.025,3.025,0,0,1-.635.056Z" transform="translate(-502.62 -569.721)"/><path class="b" d="M563.51,594.207l.343-1.067.343-1.067.345,1.071.343,1.067H563.51Zm.347-2.977-.809,2.3-.809,2.3h.744l.172-.509.174-.509h1.736l.172.509.174.509h.791l-.826-2.3-.826-2.3h-.695Z" transform="translate(-526.875 -570.584)"/><path class="b" d="M613.5,593.89a1.69,1.69,0,0,1-.242.941,1,1,0,0,1-.876.356h-1v-3.316h1a1.029,1.029,0,0,1,.876.327,1.574,1.574,0,0,1,.242.921c.007.151.01.27.01.388s0,.236-.01.384Zm-1.112-2.66H610.68v4.6h1.712a1.752,1.752,0,0,0,1.413-.488,2.3,2.3,0,0,0,.425-1.438c0-.149.011-.27.011-.392s0-.245-.011-.4a2.169,2.169,0,0,0-.425-1.419A1.815,1.815,0,0,0,612.392,591.23Z" transform="translate(-568.583 -570.583)"/><path class="b" d="M642.78,594.207l.343-1.067.343-1.067.343,1.067.345,1.067Zm.347-2.977-.809,2.3-.809,2.3h.744l.172-.509.174-.509h1.736l.172.509.174.509h.788l-.827-2.3-.826-2.3h-.695Z" transform="translate(-595.129 -570.584)"/><path class="b" d="M690,230.049h.716v-4.6H690v4.6Z" transform="translate(-636.899 -204.804)"/><path class="b" d="M708.594,228.777l-1.151-1.664-1.149-1.664h-.564v4.6h.716v-3.3L707.6,228.4l1.148,1.652h.567v-4.6h-.716v3.327Z" transform="translate(-650.443 -204.804)"/><path class="b" d="M742.06,230.049h.717v-1.885h1.808v-.641h-1.808v-1.433h2.261v-.641H742.06v4.6Z" transform="translate(-681.724 -204.804)"/><path class="b" d="M772.36,593.04a1.44,1.44,0,0,1-.286.941,1.151,1.151,0,0,1-.9.3,1.171,1.171,0,0,1-.908-.3,1.424,1.424,0,0,1-.293-.941c0-.154-.01-.3-.01-.438s0-.278.01-.436a1.463,1.463,0,0,1,.293-.944,1.16,1.16,0,0,1,.908-.3,1.137,1.137,0,0,1,.9.3,1.451,1.451,0,0,1,.286.944c0,.154.011.3.011.436S772.371,592.88,772.36,593.04Zm-1.187-2.78a1.9,1.9,0,0,0-1.437.477,2.123,2.123,0,0,0-.485,1.433c-.007.154-.011.3-.011.436s0,.278.011.438a2.112,2.112,0,0,0,.485,1.432,2.42,2.42,0,0,0,2.866,0,2.132,2.132,0,0,0,.486-1.432c.007-.154.011-.3.011-.438s0-.278-.011-.436a2.145,2.145,0,0,0-.486-1.433A1.874,1.874,0,0,0,771.173,590.26Z" transform="translate(-705.107 -569.748)"/><path class="b" d="M807.554,593.605H806.4v-1.734h1.144a1.046,1.046,0,0,1,.685.167.652.652,0,0,1,.189.488v.158a1.633,1.633,0,0,1,0,.164.834.834,0,0,1-.2.556.909.909,0,0,1-.669.2Zm1.59-.8v-.3a1.273,1.273,0,0,0-.377-.928,1.779,1.779,0,0,0-1.22-.346h-1.9v4.6h.716v-1.62h1.188a.123.123,0,0,0,.06-.021.16.16,0,0,1,.058-.028l.417.788.417.789.386-.008.385-.008-.473-.855-.473-.853a1.077,1.077,0,0,0,.595-.461,1.607,1.607,0,0,0,.2-.749Z" transform="translate(-736.457 -570.584)"/><path class="b" d="M842.049,228.01l-.687-1.28-.687-1.28h-.716v4.6h.678V226.7l.574,1.053.574,1.055h.534l.534-1.065.535-1.065v3.373h.678v-4.6h-.643l-.687,1.28-.688,1.28Z" transform="translate(-766.018 -204.804)"/><path class="b" d="M878.91,594.207l.343-1.067.343-1.067.343,1.067.343,1.067Zm.346-2.977-.809,2.3-.807,2.3h.745l.174-.509.174-.509h1.737l.174.509.174.509h.791l-.826-2.3-.826-2.3h-.695Z" transform="translate(-798.442 -570.584)"/><path class="b" d="M912.251,594.261a1.082,1.082,0,0,1-.923-.347,1.761,1.761,0,0,1-.267-1.016v-.314c0-.106,0-.21.008-.313a1.816,1.816,0,0,1,.254-1.016,1.043,1.043,0,0,1,.914-.354,2.864,2.864,0,0,1,.637.072,2.7,2.7,0,0,1,.6.211v-.661a2.305,2.305,0,0,0-.545-.208,2.861,2.861,0,0,0-.685-.075,1.81,1.81,0,0,0-1.451.5,2.393,2.393,0,0,0-.452,1.529v.313c0,.1.007.211.011.314a2.382,2.382,0,0,0,.454,1.529,1.811,1.811,0,0,0,1.448.5,3.081,3.081,0,0,0,.685-.061,5.036,5.036,0,0,0,.573-.158v-.664c-.227.068-.427.125-.627.164a2.914,2.914,0,0,1-.625.056Z" transform="translate(-826.597 -569.73)"/><path class="b" d="M941.57,594.207l.343-1.067.343-1.067.343,1.067.343,1.067H941.57Zm.346-2.977-.807,2.3-.809,2.3h.742l.174-.509.174-.509h1.734l.174.509.174.509h.791l-.826-2.3-.834-2.3h-.695Z" transform="translate(-852.394 -570.584)"/><path class="b" d="M975.189,593.014a1.489,1.489,0,0,1-.278.941,1.14,1.14,0,0,1-.9.3,1.171,1.171,0,0,1-.908-.3,1.424,1.424,0,0,1-.293-.941c-.007-.154-.011-.3-.011-.438s0-.278.011-.436a1.464,1.464,0,0,1,.293-.944,1.146,1.146,0,0,1,.9-.3,1.133,1.133,0,0,1,.9.3,1.413,1.413,0,0,1,.278.944c.008.154.011.3.011.436s0,.278-.011.438Zm.73-.874a2.159,2.159,0,0,0-.486-1.433A1.872,1.872,0,0,0,974,590.23a1.911,1.911,0,0,0-1.437.477,2.123,2.123,0,0,0-.485,1.433c0,.154-.011.3-.011.436s0,.278.011.438a2.112,2.112,0,0,0,.485,1.431,2.42,2.42,0,0,0,2.866,0,2.132,2.132,0,0,0,.486-1.431c0-.154.011-.3.011-.438S975.929,592.3,975.918,592.14Z" transform="translate(-879.748 -569.723)"/><path class="b" d="M947.617,581.945a.217.217,0,0,1,.064-.153.242.242,0,0,1,.178-.068,1.252,1.252,0,0,1,.436.089,1.206,1.206,0,0,0,.417.089.51.51,0,0,0,.439-.179.741.741,0,0,0,.089-.531h-.431a.139.139,0,0,1-.07.139.355.355,0,0,1-.174.033,1.371,1.371,0,0,1-.417-.088,1.25,1.25,0,0,0-.417-.085.52.52,0,0,0-.474.235.834.834,0,0,0-.088.517h.452Z" transform="translate(-858.301 -561.939)"/><path class="b" d="M918.36,262.38h.575l.264-.566.264-.564h-.639l-.232.564-.232.566Z" transform="translate(-833.522 -235.628)"/></g></g></svg>